<?xml version="1.0" encoding="UTF-8" standalone="no"?>
<!-- Created with Inkscape (http://www.inkscape.org/) -->

<svg
   version="1.1"
   id="svg1"
   width="337.33334"
   height="85.333336"
   viewBox="0 0 337.33334 85.333336"
   sodipodi:docname="stabilis-logo-white.svg"
   xml:space="preserve"
   inkscape:version="1.4 (86a8ad7, 2024-10-11)"
   xmlns:inkscape="http://www.inkscape.org/namespaces/inkscape"
   xmlns:sodipodi="http://sodipodi.sourceforge.net/DTD/sodipodi-0.dtd"
   xmlns="http://www.w3.org/2000/svg"
   xmlns:svg="http://www.w3.org/2000/svg"><defs
     id="defs1" /><sodipodi:namedview
     id="namedview1"
     pagecolor="#ffffff"
     bordercolor="#000000"
     borderopacity="0.25"
     inkscape:showpageshadow="2"
     inkscape:pageopacity="0.0"
     inkscape:pagecheckerboard="0"
     inkscape:deskcolor="#d1d1d1"
     inkscape:zoom="1.8613957"
     inkscape:cx="117.92227"
     inkscape:cy="78.704383"
     inkscape:window-width="2560"
     inkscape:window-height="1377"
     inkscape:window-x="1912"
     inkscape:window-y="-8"
     inkscape:window-maximized="1"
     inkscape:current-layer="g1" /><g
     inkscape:groupmode="layer"
     inkscape:label="Image"
     id="g1"><path
       style="font-weight:500;font-size:96px;font-family:Outfit;-inkscape-font-specification:'Outfit Medium';fill:#ffffff;fill-opacity:1"
       d="m 25.865001,48.655212 c -1.152,-1.728 -1.728,-3.968 -1.728,-6.72 0,-2.944 0.672,-5.472 2.016,-7.584 1.408,-2.112 3.36,-3.744 5.856,-4.896 2.56,-1.152 5.6,-1.728 9.12,-1.728 3.712,0 6.976,0.672 9.792,2.016 2.88,1.28 5.28,3.232 7.2,5.856 l -6.72,6.72 c -1.344,-1.664 -2.88,-2.912 -4.608,-3.744 -1.728,-0.832 -3.712,-1.248 -5.952,-1.248 -2.112,0 -3.744,0.32 -4.896,0.96 -1.152,0.64 -1.728,1.568 -1.728,2.784 0,1.28 0.576,2.272 1.728,2.976 1.152,0.704 2.624,1.312 4.416,1.824 1.856,0.512 3.776,1.088 5.76,1.728 2.723278,0.765922 -19.104,2.784 -20.256,1.056 z m 48.000029,26.112 V 9.4872119 h 10.56 V 74.767212 Z m -11.04,-36.48 v -9.6 h 32.64 v 9.6 z m 58.27203,37.44 c -4.16,0 -7.936,-1.056 -11.328,-3.168 -3.328,-2.112 -5.984,-4.96 -7.968,-8.544 -1.919999,-3.648 -2.879999,-7.712 -2.879999,-12.192 0,-4.544 0.96,-8.608 2.879999,-12.192 1.984,-3.648 4.64,-6.528 7.968,-8.64 3.392,-2.176 7.168,-3.264 11.328,-3.264 3.52,0 6.624,0.768 9.312,2.304 2.752,1.472 4.928,3.52 6.528,6.144 1.6,2.624 2.4,5.6 2.4,8.928 v 13.248 c 0,3.328 -0.8,6.304 -2.4,8.928 -1.536,2.624 -3.68,4.704 -6.432,6.24 -2.752,1.472 -5.888,2.208 -9.408,2.208 z m 1.728,-9.984 c 3.904,0 7.04,-1.312 9.408,-3.936 2.432,-2.624 3.648,-5.984 3.648,-10.08 0,-2.752 -0.544,-5.184 -1.632,-7.296 -1.088,-2.112 -2.624,-3.744 -4.608,-4.896 -1.92,-1.216 -4.192,-1.824 -6.816,-1.824 -2.56,0 -4.832,0.608 -6.816,1.824 -1.92,1.152 -3.456,2.784 -4.608,4.896 -1.088,2.112 -1.632,4.544 -1.632,7.296 0,2.752 0.544,5.184 1.632,7.296 1.152,2.112 2.688,3.776 4.608,4.992 1.984,1.152 4.256,1.728 6.816,1.728 z m 12.384,9.024 v -12.384 l 1.824,-11.232 -1.824,-11.136 v -11.328 h 10.56 v 46.08 z m 46.94399,0.96 c -3.52,0 -6.656,-0.736 -9.408,-2.208 -2.752,-1.536 -4.928,-3.616 -6.528,-6.24 -1.536,-2.624 -2.304,-5.6 -2.304,-8.928 v -13.248 c 0,-3.328 0.8,-6.304 2.4,-8.928 1.6,-2.624 3.776,-4.672 6.528,-6.144 2.752,-1.536 5.856,-2.304 9.312,-2.304 4.16,0 7.904,1.088 11.232,3.264 3.392,2.112 6.048,4.992 7.968,8.64 1.984,3.584 2.976,7.648 2.976,12.192 0,4.48 -0.992,8.544 -2.976,12.192 -1.92,3.584 -4.576,6.432 -7.968,8.544 -3.328,2.112 -7.072,3.168 -11.232,3.168 z m -24.672,-0.96 V 5.6472119 h 10.56 V 40.015212 l -1.824,11.136 1.824,11.232 v 12.384 z m 22.944,-9.024 c 2.56,0 4.8,-0.576 6.72,-1.728 1.984,-1.216 3.52,-2.88 4.608,-4.992 1.152,-2.112 1.728,-4.544 1.728,-7.296 0,-2.752 -0.576,-5.184 -1.728,-7.296 -1.088,-2.112 -2.624,-3.744 -4.608,-4.896 -1.92,-1.216 -4.16,-1.824 -6.72,-1.824 -2.56,0 -4.832,0.608 -6.816,1.824 -1.984,1.152 -3.52,2.784 -4.608,4.896 -1.088,2.112 -1.632,4.544 -1.632,7.296 0,2.752 0.544,5.184 1.632,7.296 1.088,2.112 2.624,3.776 4.608,4.992 1.984,1.152 4.256,1.728 6.816,1.728 z m 32.832,9.024 v -46.08 h 10.56 v 46.08 z m 5.28,-54.528 c -1.792,0 -3.296,-0.608 -4.512,-1.824 -1.152,-1.216 -1.728,-2.72 -1.728,-4.512 0,-1.792 0.576,-3.296 1.728,-4.5120001 1.216,-1.216 2.72,-1.824 4.512,-1.824 1.856,0 3.36,0.608 4.512,1.824 1.152,1.2160001 1.728,2.7200001 1.728,4.5120001 0,1.792 -0.576,3.296 -1.728,4.512 -1.152,1.216 -2.656,1.824 -4.512,1.824 z m 17.08792,54.528 V 5.6472119 h 10.56 V 74.767212 Z m 22.36804,0 v -46.08 h 10.56 v 46.08 z m 5.28,-54.528 c -1.792,0 -3.296,-0.608 -4.512,-1.824 -1.152,-1.216 -1.728,-2.72 -1.728,-4.512 0,-1.792 0.576,-3.296 1.728,-4.5120001 1.216,-1.216 2.72,-1.824 4.512,-1.824 1.856,0 3.36,0.608 4.512,1.824 1.152,1.2160001 1.728,2.7200001 1.728,4.5120001 0,1.792 -0.576,3.296 -1.728,4.512 -1.152,1.216 -2.656,1.824 -4.512,1.824 z m 32.15993,55.488 c -2.56,0 -5.024,-0.32 -7.392,-0.96 -2.368,-0.704 -4.544,-1.664 -6.528,-2.88 -1.984,-1.28 -3.712,-2.816 -5.184,-4.608 l 6.72,-6.72 c 1.6,1.856 3.424,3.264 5.472,4.224 2.112,0.896 4.48,1.344 7.104,1.344 2.368,0 4.16,-0.352 5.376,-1.056 1.216,-0.704 1.824,-1.728 1.824,-3.072 0,-1.408 -0.576,-2.496 -1.728,-3.264 -1.152,-0.768 -2.656,-1.408 -4.512,-1.92 -1.792,-0.576 -3.712,-1.152 -5.76,-1.728 -1.984,-0.576 -3.904,-1.344 -5.76,-2.304 -1.792,-1.024 -3.264,-2.4 -4.416,-4.128 -1.152,-1.728 -1.728,-3.968 -1.728,-6.72 0,-2.944 0.672,-5.472 2.016,-7.584 1.408,-2.112 3.36,-3.744 5.856,-4.896 2.56,-1.152 5.6,-1.728 9.12,-1.728 3.712,0 6.976,0.672 9.792,2.016 2.88,1.28 5.28,3.232 7.2,5.856 l -6.72,6.72 c -1.344,-1.664 -2.88,-2.912 -4.608,-3.744 -1.728,-0.832 -3.712,-1.248 -5.952,-1.248 -2.112,0 -3.744,0.32 -4.896,0.96 -1.152,0.64 -1.728,1.568 -1.728,2.784 0,1.28 0.576,2.272 1.728,2.976 1.152,0.704 2.624,1.312 4.416,1.824 1.856,0.512 3.776,1.088 5.76,1.728 2.048,0.576 3.968,1.408 5.76,2.496 1.856,1.024 3.36,2.432 4.512,4.224 1.152,1.728 1.728,4 1.728,6.816 0,4.48 -1.568,8.032 -4.704,10.656 -3.136,2.624 -7.392,3.936 -12.768,3.936 z"
       id="path29"
       aria-label="stabilis"
       sodipodi:nodetypes="ssccscccsssssccsccccccccccsccsccscsssccsscsscsccsccsccccccccsccssscsccsccsccccccccsccsccscssscscccccscscsssssccccccccccscscsssssscccccsssscccssccscccsssssccccsss" /><path
       style="font-weight:500;font-size:96px;font-family:Outfit;-inkscape-font-specification:'Outfit Medium';fill:#ffffff;fill-opacity:1"
       d="m 40.649001,75.727212 c -2.56,0 -5.024,-0.32 -7.392,-0.96 -2.368,-0.704 -4.544,-1.664 -6.528,-2.88 -1.984,-1.28 -3.712,-2.816 -5.184,-4.608 l 6.72,-6.72 c 1.6,1.856 3.424,3.264 5.472,4.224 2.112,0.896 4.48,1.344 7.104,1.344 2.368,0 4.16,-0.352 5.376,-1.056 1.216,-0.704 1.824,-1.728 1.824,-3.072 0,-1.408 -0.576,-2.496 -1.728,-3.264 -1.152,-0.768 -2.656,-1.408 -4.512,-1.92 -1.792,-0.576 -3.712,-1.152 -5.76,-1.728 -1.984,-0.576 19.2,-2.56 20.352,-0.768 1.152,1.728 1.728,4 1.728,6.816 0,4.48 -1.568,8.032 -4.704,10.656 -3.136,2.624 -7.392,3.936 -12.768,3.936 z m 33.216029,-0.96 V 9.4872119 h 10.56 V 74.767212 Z m -11.04,-36.48 v -9.6 h 32.64 v 9.6 z m 58.27203,37.44 c -4.16,0 -7.936,-1.056 -11.328,-3.168 -3.328,-2.112 -5.984,-4.96 -7.968,-8.544 -1.919999,-3.648 -2.879999,-7.712 -2.879999,-12.192 0,-4.544 0.96,-8.608 2.879999,-12.192 1.984,-3.648 4.64,-6.528 7.968,-8.64 3.392,-2.176 7.168,-3.264 11.328,-3.264 3.52,0 6.624,0.768 9.312,2.304 2.752,1.472 4.928,3.52 6.528,6.144 1.6,2.624 2.4,5.6 2.4,8.928 v 13.248 c 0,3.328 -0.8,6.304 -2.4,8.928 -1.536,2.624 -3.68,4.704 -6.432,6.24 -2.752,1.472 -5.888,2.208 -9.408,2.208 z m 1.728,-9.984 c 3.904,0 7.04,-1.312 9.408,-3.936 2.432,-2.624 3.648,-5.984 3.648,-10.08 0,-2.752 -0.544,-5.184 -1.632,-7.296 -1.088,-2.112 -2.624,-3.744 -4.608,-4.896 -1.92,-1.216 -4.192,-1.824 -6.816,-1.824 -2.56,0 -4.832,0.608 -6.816,1.824 -1.92,1.152 -3.456,2.784 -4.608,4.896 -1.088,2.112 -1.632,4.544 -1.632,7.296 0,2.752 0.544,5.184 1.632,7.296 1.152,2.112 2.688,3.776 4.608,4.992 1.984,1.152 4.256,1.728 6.816,1.728 z m 12.384,9.024 v -12.384 l 1.824,-11.232 -1.824,-11.136 v -11.328 h 10.56 v 46.08 z m 46.94399,0.96 c -3.52,0 -6.656,-0.736 -9.408,-2.208 -2.752,-1.536 -4.928,-3.616 -6.528,-6.24 -1.536,-2.624 -2.304,-5.6 -2.304,-8.928 v -13.248 c 0,-3.328 0.8,-6.304 2.4,-8.928 1.6,-2.624 3.776,-4.672 6.528,-6.144 2.752,-1.536 5.856,-2.304 9.312,-2.304 4.16,0 7.904,1.088 11.232,3.264 3.392,2.112 6.048,4.992 7.968,8.64 1.984,3.584 2.976,7.648 2.976,12.192 0,4.48 -0.992,8.544 -2.976,12.192 -1.92,3.584 -4.576,6.432 -7.968,8.544 -3.328,2.112 -7.072,3.168 -11.232,3.168 z m -24.672,-0.96 V 5.6472119 h 10.56 V 40.015212 l -1.824,11.136 1.824,11.232 v 12.384 z m 22.944,-9.024 c 2.56,0 4.8,-0.576 6.72,-1.728 1.984,-1.216 3.52,-2.88 4.608,-4.992 1.152,-2.112 1.728,-4.544 1.728,-7.296 0,-2.752 -0.576,-5.184 -1.728,-7.296 -1.088,-2.112 -2.624,-3.744 -4.608,-4.896 -1.92,-1.216 -4.16,-1.824 -6.72,-1.824 -2.56,0 -4.832,0.608 -6.816,1.824 -1.984,1.152 -3.52,2.784 -4.608,4.896 -1.088,2.112 -1.632,4.544 -1.632,7.296 0,2.752 0.544,5.184 1.632,7.296 1.088,2.112 2.624,3.776 4.608,4.992 1.984,1.152 4.256,1.728 6.816,1.728 z m 32.832,9.024 v -46.08 h 10.56 v 46.08 z m 5.28,-54.528 c -1.792,0 -3.296,-0.608 -4.512,-1.824 -1.152,-1.216 -1.728,-2.72 -1.728,-4.512 0,-1.792 0.576,-3.296 1.728,-4.5120001 1.216,-1.216 2.72,-1.824 4.512,-1.824 1.856,0 3.36,0.608 4.512,1.824 1.152,1.2160001 1.728,2.7200001 1.728,4.5120001 0,1.792 -0.576,3.296 -1.728,4.512 -1.152,1.216 -2.656,1.824 -4.512,1.824 z m 17.08792,54.528 V 5.6472119 h 10.56 V 74.767212 Z m 22.36804,0 v -46.08 h 10.56 v 46.08 z m 5.28,-54.528 c -1.792,0 -3.296,-0.608 -4.512,-1.824 -1.152,-1.216 -1.728,-2.72 -1.728,-4.512 0,-1.792 0.576,-3.296 1.728,-4.5120001 1.216,-1.216 2.72,-1.824 4.512,-1.824 1.856,0 3.36,0.608 4.512,1.824 1.152,1.2160001 1.728,2.7200001 1.728,4.5120001 0,1.792 -0.576,3.296 -1.728,4.512 -1.152,1.216 -2.656,1.824 -4.512,1.824 z m 32.15993,55.488 c -2.56,0 -5.024,-0.32 -7.392,-0.96 -2.368,-0.704 -4.544,-1.664 -6.528,-2.88 -1.984,-1.28 -3.712,-2.816 -5.184,-4.608 l 6.72,-6.72 c 1.6,1.856 3.424,3.264 5.472,4.224 2.112,0.896 4.48,1.344 7.104,1.344 2.368,0 4.16,-0.352 5.376,-1.056 1.216,-0.704 1.824,-1.728 1.824,-3.072 0,-1.408 -0.576,-2.496 -1.728,-3.264 -1.152,-0.768 -2.656,-1.408 -4.512,-1.92 -1.792,-0.576 -3.712,-1.152 -5.76,-1.728 -1.984,-0.576 -3.904,-1.344 -5.76,-2.304 -1.792,-1.024 -3.264,-2.4 -4.416,-4.128 -1.152,-1.728 -1.728,-3.968 -1.728,-6.72 0,-2.944 0.672,-5.472 2.016,-7.584 1.408,-2.112 3.36,-3.744 5.856,-4.896 2.56,-1.152 5.6,-1.728 9.12,-1.728 3.712,0 6.976,0.672 9.792,2.016 2.88,1.28 5.28,3.232 7.2,5.856 l -6.72,6.72 c -1.344,-1.664 -2.88,-2.912 -4.608,-3.744 -1.728,-0.832 -3.712,-1.248 -5.952,-1.248 -2.112,0 -3.744,0.32 -4.896,0.96 -1.152,0.64 -1.728,1.568 -1.728,2.784 0,1.28 0.576,2.272 1.728,2.976 1.152,0.704 2.624,1.312 4.416,1.824 1.856,0.512 3.776,1.088 5.76,1.728 2.048,0.576 3.968,1.408 5.76,2.496 1.856,1.024 3.36,2.432 4.512,4.224 1.152,1.728 1.728,4 1.728,6.816 0,4.48 -1.568,8.032 -4.704,10.656 -3.136,2.624 -7.392,3.936 -12.768,3.936 z"
       id="text1"
       aria-label="stabilis"
       sodipodi:nodetypes="scccccsssscccsssccccccccccsccsccscsssccsscsscsccsccsccccccccsccssscsccsccsccccccccsccsccscssscscccccscscsssssccccccccccscscsssssscccccsssscccssccscccsssssccccsss" /><rect
       style="display:inline;fill:#ffffff;fill-opacity:1;stroke-width:0.984469"
       id="rect29"
       width="38.495773"
       height="6.0454898"
       x="21.328558"
       y="44.086273" /><rect
       style="display:inline;fill:#ffffff;fill-opacity:1;stroke-width:0.984469"
       id="rect32"
       width="38.495773"
       height="6.0454898"
       x="21.328558"
       y="52.946636" /></g></svg>
