<svg xmlns="http://www.w3.org/2000/svg" width="422" height="422" viewBox="0 0 422 422">
<g>
<path d="M 183.50,379.99 L 181.49,379.69 L 177.92,379.15 L 176.20,378.88 L 173.12,378.38 L 171.63,378.13 L 168.92,377.65 L 167.60,377.41 L 165.14,376.93 L 162.73,376.44 L 158.13,375.34 L 150.64,373.33 L 146.82,372.25 L 139.47,369.85 L 135.85,368.61 L 128.88,365.87 L 125.45,364.47 L 118.84,361.39 L 115.57,359.80 L 109.29,356.37 L 106.19,354.60 L 100.22,350.80 L 97.27,348.84 L 91.58,344.65 L 88.77,342.50 L 83.33,337.90 L 75.44,330.54 L 73.97,329.08 L 71.48,326.53 L 70.31,325.32 L 68.39,323.23 L 67.50,322.23 L 66.12,320.50 L 65.48,319.67 L 64.58,318.23 L 64.18,317.53 L 63.71,316.29 L 63.52,315.69 L 63.43,314.56 L 63.44,314.01 L 63.69,312.92 L 64.40,311.24 L 64.50,311.05 L 65.19,310.20 L 65.61,309.69 L 66.88,308.26 L 67.59,307.48 L 69.39,305.56 L 70.34,304.54 L 72.59,302.18 L 73.76,300.96 L 76.38,298.25 L 77.73,296.86 L 80.66,293.88 L 82.16,292.36 L 85.32,289.18 L 90.25,284.25 L 91.60,282.91 L 94.08,280.46 L 95.29,279.26 L 97.50,277.07 L 98.58,276.01 L 100.55,274.08 L 101.51,273.14 L 103.25,271.45 L 104.09,270.63 L 105.62,269.16 L 106.36,268.45 L 107.70,267.19 L 108.99,265.97 L 111.06,264.11 L 112.03,263.26 L 113.55,262.04 L 114.26,261.49 L 115.37,260.78 L 115.88,260.48 L 116.72,260.17 L 117.82,260.00 L 118.48,260.00 L 119.83,260.39 L 120.19,260.53 L 120.98,260.96 L 121.40,261.20 L 122.34,261.86 L 122.83,262.22 L 123.98,263.15 L 124.58,263.65 L 125.98,264.88 L 126.72,265.54 L 128.43,267.11 L 131.39,269.90 L 132.74,271.17 L 135.26,273.48 L 136.49,274.59 L 138.85,276.60 L 141.18,278.55 L 145.68,281.78 L 147.95,283.32 L 152.76,286.05 L 154.01,286.71 L 156.68,288.02 L 160.99,290.00 L 162.94,290.85 L 167.10,292.38 L 169.22,293.11 L 173.68,294.39 L 175.94,294.99 L 180.63,296.01 L 183.00,296.49 L 187.87,297.24 L 190.31,297.58 L 195.28,298.06 L 197.77,298.26 L 202.78,298.45 L 205.28,298.50 L 210.26,298.40 L 217.62,297.90 L 220.28,297.63 L 225.02,296.90 L 227.30,296.50 L 231.32,295.48 L 233.25,294.94 L 236.56,293.63 L 238.14,292.94 L 240.77,291.32 L 242.01,290.47 L 243.99,288.53 L 244.89,287.51 L 246.24,285.22 L 246.83,284.04 L 247.57,281.39 L 248.00,277.00 L 248.00,275.94 L 247.78,273.94 L 247.63,272.95 L 247.11,271.09 L 246.80,270.17 L 245.96,268.42 L 245.50,267.56 L 244.32,265.92 L 243.69,265.11 L 242.18,263.56 L 241.38,262.79 L 239.50,261.31 L 238.52,260.58 L 236.29,259.15 L 232.50,257.06 L 226.50,254.03 L 149.22,254.01 L 145.18,254.01 L 137.71,254.01 L 134.06,254.01 L 127.34,254.00 L 124.06,253.99 L 118.05,253.98 L 115.13,253.97 L 109.78,253.95 L 107.19,253.94 L 102.48,253.91 L 100.20,253.90 L 96.08,253.87 L 94.08,253.85 L 90.52,253.81 L 88.80,253.79 L 85.74,253.74 L 84.27,253.71 L 81.68,253.65 L 80.45,253.62 L 78.29,253.55 L 77.27,253.51 L 75.51,253.43 L 74.67,253.39 L 73.26,253.30 L 72.60,253.25 L 71.50,253.15 L 70.99,253.10 L 70.17,252.98 L 68.53,252.58 L 67.92,252.32 L 66.89,251.70 L 66.40,251.37 L 65.58,250.51 L 65.20,250.05 L 64.59,248.87 L 64.31,248.24 L 63.87,246.65 L 63.68,245.79 L 63.41,243.70 L 63.29,242.58 L 63.15,239.89 L 63.10,238.47 L 63.08,235.09 L 63.17,229.16 L 63.21,227.37 L 63.28,224.43 L 63.32,223.06 L 63.40,220.85 L 63.45,219.82 L 63.57,218.21 L 63.63,217.47 L 63.81,216.33 L 63.91,215.80 L 64.17,215.00 L 64.31,214.63 L 64.68,214.03 L 66.31,212.41 L 69.11,210.00 L 205.00,210.00 L 340.89,210.00 L 343.69,212.41 L 344.39,213.01 L 345.32,214.03 L 345.52,214.31 L 345.83,215.00 L 345.97,215.37 L 346.19,216.33 L 346.29,216.85 L 346.43,218.21 L 346.50,218.96 L 346.60,220.85 L 346.64,221.88 L 346.72,224.43 L 346.83,229.16 L 346.88,231.34 L 346.92,235.09 L 346.92,236.87 L 346.85,239.89 L 346.80,241.32 L 346.59,243.70 L 346.48,244.82 L 346.13,246.65 L 345.93,247.50 L 345.41,248.87 L 345.13,249.51 L 344.42,250.51 L 344.03,250.98 L 343.11,251.70 L 341.47,252.58 L 340.53,252.97 L 338.39,253.58 L 337.88,253.71 L 336.94,253.89 L 335.78,254.00 L 333.50,254.00 L 333.84,267.89 L 333.89,269.82 L 333.92,273.37 L 333.92,275.09 L 333.85,278.29 L 333.76,281.42 L 333.22,287.08 L 332.89,289.87 L 331.81,295.42 L 331.50,296.84 L 330.77,299.78 L 329.48,304.46 L 328.78,306.90 L 327.12,311.62 L 326.25,313.95 L 324.26,318.47 L 323.23,320.70 L 320.93,325.00 L 319.74,327.13 L 317.12,331.22 L 315.77,333.24 L 312.85,337.11 L 311.35,339.02 L 308.12,342.66 L 306.48,344.46 L 302.96,347.88 L 301.16,349.56 L 297.36,352.74 L 295.42,354.30 L 291.33,357.25 L 289.25,358.69 L 284.88,361.39 L 282.67,362.71 L 278.03,365.16 L 275.68,366.35 L 270.78,368.55 L 268.30,369.61 L 263.15,371.55 L 260.54,372.48 L 255.13,374.16 L 252.40,374.96 L 246.75,376.36 L 238.00,378.16 L 236.39,378.45 L 232.37,378.96 L 230.26,379.21 L 225.48,379.63 L 223.02,379.83 L 217.79,380.15 L 215.14,380.30 L 209.76,380.51 L 207.07,380.60 L 201.85,380.69 L 199.29,380.72 L 194.53,380.67 L 192.24,380.63 L 188.26,380.45 L 187.33,380.39 L 185.66,380.25 L 184.87,380.17 M 68.02,199.72 L 67.46,199.44 L 66.51,198.82 L 66.06,198.49 L 65.33,197.72 L 64.99,197.30 L 64.45,196.26 L 64.20,195.69 L 63.82,194.27 L 63.66,193.50 L 63.43,191.59 L 63.33,190.56 L 63.22,188.06 L 63.18,186.72 L 63.17,183.51 L 63.23,177.78 L 63.26,175.92 L 63.32,172.84 L 63.36,171.39 L 63.43,169.02 L 63.47,167.91 L 63.58,166.14 L 63.64,165.32 L 63.79,164.03 L 63.88,163.43 L 64.09,162.51 L 64.21,162.09 L 64.50,161.42 L 65.76,159.79 L 66.22,159.33 L 67.20,158.65 L 67.73,158.34 L 69.04,157.90 L 69.76,157.70 L 71.68,157.44 L 75.57,157.16 L 76.35,157.12 L 77.68,157.04 L 78.31,156.99 L 79.36,156.90 L 80.35,156.81 L 81.58,156.56 L 82.09,156.42 L 82.54,156.04 L 82.55,155.26 L 82.47,155.05 L 82.27,153.87 L 82.17,153.18 L 81.96,151.22 L 81.85,150.16 L 81.64,147.67 L 81.36,143.62 L 81.22,141.37 L 81.19,136.77 L 81.21,134.45 L 81.48,129.78 L 81.66,127.43 L 82.23,122.73 L 82.55,120.39 L 83.41,115.72 L 83.88,113.39 L 85.01,108.81 L 85.61,106.53 L 87.01,102.08 L 87.74,99.88 L 89.40,95.62 L 92.15,89.50 L 93.27,87.25 L 95.74,82.93 L 97.02,80.80 L 99.81,76.73 L 101.24,74.73 L 104.34,70.91 L 105.93,69.03 L 109.34,65.46 L 111.08,63.71 L 114.78,60.40 L 116.67,58.77 L 120.66,55.72 L 122.70,54.23 L 126.98,51.44 L 129.16,50.08 L 133.73,47.55 L 136.05,46.33 L 140.89,44.07 L 143.35,42.97 L 148.46,40.99 L 151.05,40.03 L 156.44,38.32 L 159.16,37.50 L 164.80,36.06 L 167.65,35.38 L 173.55,34.23 L 176.53,33.69 L 182.68,32.81 L 185.78,32.41 L 192.17,31.83 L 202.02,31.27 L 206.27,31.13 L 214.68,31.25 L 218.86,31.38 L 227.12,32.03 L 231.22,32.43 L 239.27,33.61 L 243.27,34.26 L 251.07,35.95 L 254.93,36.86 L 262.43,39.05 L 266.14,40.20 L 273.30,42.88 L 276.83,44.28 L 283.60,47.44 L 293.26,52.70 L 294.60,53.51 L 297.42,55.36 L 298.85,56.33 L 301.79,58.45 L 304.74,60.63 L 310.67,65.49 L 313.58,67.96 L 318.95,73.02 L 320.23,74.27 L 322.57,76.71 L 325.69,80.23 L 326.60,81.32 L 328.16,83.24 L 328.90,84.17 L 330.12,85.79 L 330.70,86.57 L 331.63,87.95 L 332.06,88.61 L 332.71,89.79 L 333.00,90.36 L 333.41,91.39 L 333.58,91.90 L 333.76,92.83 L 333.58,95.52 L 333.53,95.73 L 332.90,96.65 L 332.50,97.18 L 331.24,98.67 L 330.54,99.48 L 328.75,101.46 L 327.80,102.50 L 325.56,104.88 L 324.40,106.11 L 321.80,108.81 L 320.47,110.18 L 317.61,113.10 L 314.71,116.05 L 308.47,122.26 L 305.34,125.35 L 299.20,131.31 L 297.71,132.75 L 294.85,135.46 L 293.46,136.78 L 290.87,139.18 L 289.63,140.34 L 287.40,142.35 L 286.34,143.30 L 284.56,144.83 L 283.74,145.53 L 282.49,146.49 L 281.33,147.19 L 280.38,147.45 L 278.65,147.45 L 277.78,147.35 L 275.92,146.47 L 275.43,146.19 L 274.36,145.41 L 273.80,144.99 L 272.56,143.92 L 271.92,143.34 L 270.47,141.95 L 268.00,139.45 L 265.87,137.25 L 261.83,133.50 L 259.83,131.71 L 255.83,128.64 L 253.81,127.16 L 249.56,124.55 L 242.59,120.93 L 240.90,120.14 L 237.40,118.74 L 235.63,118.08 L 231.98,116.93 L 230.13,116.39 L 226.33,115.49 L 224.41,115.08 L 220.46,114.44 L 218.47,114.15 L 214.39,113.76 L 212.33,113.59 L 208.12,113.46 L 206.00,113.42 L 201.67,113.54 L 195.05,114.01 L 192.32,114.28 L 187.42,115.16 L 185.06,115.66 L 180.91,116.96 L 178.94,117.66 L 175.60,119.36 L 174.04,120.25 L 171.54,122.30 L 170.40,123.36 L 168.78,125.73 L 168.09,126.94 L 167.39,129.58 L 167.16,130.94 L 167.43,133.82 L 168.94,138.38 L 169.61,139.75 L 171.46,142.18 L 171.97,142.77 L 173.20,143.91 L 173.84,144.48 L 175.35,145.59 L 176.14,146.15 L 177.97,147.26 L 178.92,147.82 L 181.12,148.97 L 182.27,149.54 L 184.87,150.75 L 189.28,152.66 L 198.50,156.50 L 270.22,157.00 L 341.95,157.50 L 344.22,159.78 L 344.77,160.33 L 345.50,161.41 L 345.66,161.73 L 345.91,162.53 L 346.02,162.96 L 346.18,164.10 L 346.26,164.72 L 346.36,166.33 L 346.40,167.21 L 346.45,169.43 L 346.47,170.63 L 346.49,173.58 L 346.50,179.00 L 346.50,181.04 L 346.49,184.42 L 346.49,186.00 L 346.45,188.57 L 346.43,189.77 L 346.36,191.67 L 346.31,192.54 L 346.18,193.90 L 346.11,194.53 L 345.91,195.48 L 345.79,195.91 L 345.50,196.59 L 344.22,198.22 L 341.94,200.50 L 206.22,200.74 L 202.86,200.75 L 196.36,200.76 L 193.15,200.76 L 186.96,200.77 L 183.90,200.78 L 178.00,200.78 L 175.08,200.79 L 169.47,200.79 L 166.70,200.80 L 161.37,200.80 L 158.74,200.80 L 153.68,200.80 L 148.69,200.81 L 139.51,200.80 L 135.05,200.80 L 126.88,200.79 L 122.92,200.78 L 115.73,200.77 L 112.24,200.76 L 105.96,200.73 L 102.93,200.71 L 97.51,200.68 L 94.90,200.66 L 90.29,200.61 L 88.09,200.59 L 84.24,200.53 L 82.41,200.50 L 79.27,200.44 L 77.79,200.41 L 75.31,200.33 L 74.15,200.29 L 72.28,200.20 L 71.42,200.16 L 70.11,200.06 L 69.52,200.01 L 68.71,199.90 L 68.37,199.84 Z" fill="rgba(0,0,0,1)"/>
</g>
</svg>